# xmcd
#
# Track frame offsets: 
#        150
#        21067
#        51752
#        86620
#        109205
#        154047
#        194022
#        250057
#        277197
#        312250
#        334105
#
# Disc length: 4630 seconds
#
# Revision: 1
# Processed by: cddbd v1.5.2PL0 Copyright (c) Steve Scherf et al.
# Submitted via: ExactAudioCopy v0.99pb5
#
DISCID=9812140b
DTITLE=Ionel Tudorache - La Chilia-n Port
DYEAR=2000
DGENRE=Lautareasca
TTITLE0=Inimioara inimioara
TTITLE1=Trei lamai si trei gutui
TTITLE2=La Chilia-n Port
TTITLE3=Foaie verde mar domnesc
TTITLE4=Ia gurita, ia si bea
TTITLE5=Capitane de judet
TTITLE6=Deschide gropare mormantul
TTITLE7=Codin
TTITLE8=La Salul cel Negru
TTITLE9=O inima de mama
TTITLE10=Pe ulita armeneasca
EXTD=
EXTT0=
EXTT1=
EXTT2=
EXTT3=
EXTT4=
EXTT5=
EXTT6=
EXTT7=
EXTT8=
EXTT9=
EXTT10=
PLAYORDER=
